<svg id="图层_1" data-name="图层 1" xmlns="http://www.w3.org/2000/svg" viewBox="0 0 20.11 20.41"><defs><style>.cls-1{fill:#fff;}</style></defs><title>广告管理</title><path class="cls-1" d="M14.22,7.26H12.3v5.65h1.83a2,2,0,0,0,1.65-.74,3.31,3.31,0,0,0,.58-2.09A3.45,3.45,0,0,0,15.81,8,1.9,1.9,0,0,0,14.22,7.26ZM5.87,10.75H8.19L7.06,7.49Zm12.25-8.1H2A1.94,1.94,0,0,0,.09,4.55V15.27A1.94,1.94,0,0,0,2,17.2H18.12a1.94,1.94,0,0,0,1.93-1.93V4.55A1.93,1.93,0,0,0,18.12,2.65ZM2.54,6.36a.94.94,0,1,1,.94-.94A.93.93,0,0,1,2.54,6.36Zm6.7,7.42-.75-2.14H5.55l-.78,2.14h-1l2.8-7.37H7.68l2.66,7.37Zm7.32-1a2.88,2.88,0,0,1-2.29,1h-3V6.41h3a2.79,2.79,0,0,1,2.25,1,4.1,4.1,0,0,1,.83,2.69A3.81,3.81,0,0,1,16.56,12.77Z"/></svg>