<?xml version="1.0" encoding="utf-8"?>
<!-- Generator: Adobe Illustrator 22.0.0, SVG Export Plug-In . SVG Version: 6.00 Build 0)  -->
<svg version="1.1" id="图层_1" xmlns="http://www.w3.org/2000/svg" xmlns:xlink="http://www.w3.org/1999/xlink" x="0px" y="0px"
	 viewBox="0 0 22.5 22.3" style="enable-background:new 0 0 22.5 22.3;" xml:space="preserve">
<style type="text/css">
	.st0{fill:#FFFFFF;}
</style>
<title>财务1</title>
<path class="st0" d="M8.6,6.5h4.8c1.5,0,2.6-3.2,2.6-3.2c0-1-0.1-1.7-1.7-1.8s-2,1.1-3.2,1.1S9.3,1.7,7.8,1.5S6,2.3,6,3.3
	C6,3.3,7.1,6.5,8.6,6.5 M13.7,7.5h-5c-5.6,0-7,11-7,11c0,1.5,1.2,2.7,2.7,2.9H18c1.5-0.1,2.6-1.4,2.6-2.9
	C20.6,18.4,19.2,7.4,13.7,7.5 M14.2,15.9c0.3,0,0.6,0.3,0.6,0.6c0,0,0,0,0,0c0,0.3-0.3,0.6-0.6,0.6h0h-2.4v1.6
	c0,0.3-0.2,0.6-0.5,0.7c-0.3,0-0.6-0.2-0.7-0.5c0-0.1,0-0.1,0-0.2v-1.6H8.1c-0.3,0-0.6-0.3-0.6-0.6c0-0.3,0.3-0.6,0.6-0.6h2.5v-0.8
	H8.1c-0.3,0-0.6-0.2-0.7-0.5s0.2-0.6,0.5-0.7c0.1,0,0.1,0,0.2,0h1.7L8,10.8C7.8,10.5,8,10.2,8.2,10c0,0,0,0,0,0
	c0.3-0.2,0.7-0.1,0.9,0.2c0,0,0,0,0,0l2,3.7h0.1l2.1-3.7c0.2-0.3,0.6-0.4,0.9-0.3s0.4,0.6,0.3,0.9l0,0l-1.8,3.1h1.6
	c0.3,0,0.6,0.2,0.7,0.5s-0.2,0.6-0.5,0.7c-0.1,0-0.1,0-0.2,0h-2.5v0.8L14.2,15.9L14.2,15.9z"/>
</svg>
