<svg id="图层_1" data-name="图层 1" xmlns="http://www.w3.org/2000/svg" viewBox="0 0 20.11 20.41"><defs><style>.cls-1{fill:#fff;}</style></defs><title>订单管理</title><path class="cls-1" d="M13,2.34V3.77a1.43,1.43,0,1,0,2.85,0V2.34h1.43a1.42,1.42,0,0,1,1.42,1.43V15.9a4.27,4.27,0,0,1-4.28,4.28H3a1.43,1.43,0,0,1-1.43-1.42h0v-15A1.43,1.43,0,0,1,3,2.34H4.4V3.77a1.43,1.43,0,0,0,2.86,0V2.34ZM7.26,8.05a.72.72,0,1,0,0,1.43H13a.72.72,0,0,0,0-1.43Zm0,5a.71.71,0,1,0,0,1.42H13a.71.71,0,0,0,0-1.42Z"/><path class="cls-1" d="M5.83.2a.63.63,0,0,1,.71.72V3.77a.62.62,0,0,1-.71.71.62.62,0,0,1-.71-.71V.92A.63.63,0,0,1,5.83.2Zm8.56,0a.64.64,0,0,1,.72.72V3.77a.63.63,0,0,1-.72.71.63.63,0,0,1-.71-.71V.92A.63.63,0,0,1,14.39.2Z"/></svg>