<svg id="图层_1" data-name="图层 1" xmlns="http://www.w3.org/2000/svg" viewBox="0 0 20.11 20.41"><defs><style>.cls-1{fill:#fff;}</style></defs><title>规则管理</title><path class="cls-1" d="M16.8,20.24H3.59a1.79,1.79,0,0,1-1.78-1.79V2A1.79,1.79,0,0,1,3.59.24H5.38V6.49A.72.72,0,0,0,5.59,7L7.52,5.07,9.45,7a.72.72,0,0,0,.21-.51V.24H16.8A1.79,1.79,0,0,1,18.59,2V18.45A1.79,1.79,0,0,1,16.8,20.24Zm-2.14-9.46H6.09a.89.89,0,1,0,0,1.78h8.57a.89.89,0,1,0,0-1.78Zm0,4.28H6.09a.9.9,0,0,0,0,1.79h8.57a.9.9,0,1,0,0-1.79Z"/></svg>