<svg id="图层_1" data-name="图层 1" xmlns="http://www.w3.org/2000/svg" viewBox="0 0 20.11 20.41"><defs><style>.cls-1{fill:#fff;}</style></defs><title>系统管理</title><path class="cls-1" d="M19.93,9.07a1.31,1.31,0,0,0-.94-1L18.68,8A3.17,3.17,0,0,1,16.5,4.17l.08-.32a1.3,1.3,0,0,0-.39-1.28A7.37,7.37,0,0,0,15,1.83a6,6,0,0,0-1.24-.62,1.38,1.38,0,0,0-1.33.31l-.23.23a3.23,3.23,0,0,1-2.22.9,3.26,3.26,0,0,1-2.22-.9l-.15-.23a1.36,1.36,0,0,0-1.32-.31,6.21,6.21,0,0,0-1.25.62c-.86.51-1.17.74-1.17.74a1.33,1.33,0,0,0-.35,1.28l.08.32a3.16,3.16,0,0,1-.35,2.37A3.35,3.35,0,0,1,1.4,8l-.31.08a1.36,1.36,0,0,0-.93,1,8.09,8.09,0,0,0-.08,1.4,8.09,8.09,0,0,0,.08,1.4,1.29,1.29,0,0,0,.93,1l.31.08A3.19,3.19,0,0,1,3.27,14.4a3.16,3.16,0,0,1,.35,2.37l-.08.31a1.34,1.34,0,0,0,.39,1.29,7.37,7.37,0,0,0,1.17.74,7.3,7.3,0,0,0,1.24.62,1.37,1.37,0,0,0,1.33-.31l.23-.23a3.19,3.19,0,0,1,4.44,0l.19.23a1.36,1.36,0,0,0,1.32.31,7.08,7.08,0,0,0,1.25-.62c.86-.51,1.17-.74,1.17-.74a1.34,1.34,0,0,0,.39-1.29l-.16-.31a3.21,3.21,0,0,1,.35-2.37,3.31,3.31,0,0,1,1.87-1.48l.31-.08a1.34,1.34,0,0,0,.93-1,8.09,8.09,0,0,0,.08-1.4A11.89,11.89,0,0,0,19.93,9.07ZM10,13.66a3.19,3.19,0,1,1,3.19-3.19A3.13,3.13,0,0,1,10,13.66Z"/></svg>